# xmcd
#
# Track frame offsets:
#	150
#	1508
#	16193
#	29315
#	38088
#	54773
#	69503
#	91362
#	109977
#	125854
#	142084
#
# Disc length: 2965 seconds
#
# Revision: 1
# Processed by: cddbd v1.5.2PL0 Copyright (c) Steve Scherf et al.
# Submitted via: audiograbber 1.83.01
#
DISCID=880b930b
DTITLE=NSS - Mr. Handpuppet Man and other campfire favorites
DYEAR=1996
DGENRE=Country
TTITLE0=If Order Is Not The Need, Why Is The Need For Order So Great?
TTITLE1=Mr. Handpuppet Man
TTITLE2=It's Big, It's Drunk, It's Horny
TTITLE3=Joshua Fought The Battle Of Jericho
TTITLE4=When You Were Fat
TTITLE5=The Honky Tonk On Whup'em Up Mountain
TTITLE6=The Disengaged Man Listens
TTITLE7=The Gingey Tune
TTITLE8=2000 Light Years From Home
TTITLE9=I Got's Me An Ugly Voice
TTITLE10=Mr. Handpuppet Man (reprise) - Epilogue
EXTD=
EXTT0=
EXTT1=
EXTT2=
EXTT3=
EXTT4=
EXTT5=
EXTT6=
EXTT7=
EXTT8=
EXTT9=
EXTT10=
PLAYORDER=
